<svg id="Layer_1" xmlns="http://www.w3.org/2000/svg" viewBox="0 0 183.2 162.6"><style>.st0{fill:#37A0FF;} .st1{fill:#494E58;} .st2{fill:#1684EF;} .st3{fill:#2595FE;} .st4{fill:#137ADE;} .st5{fill:#525B68;} .st6{fill:none;stroke:#404041;stroke-width:5;stroke-miterlimit:10;} .st7{fill:#3A3F47;} .st8{fill:#57606D;} .st9{fill:none;stroke:#FFFFFF;stroke-width:3;stroke-miterlimit:10;} .st10{fill:#546C89;} .st11{fill:#5E7A96;} .st12{fill-rule:evenodd;clip-rule:evenodd;fill:none;stroke:#0060A8;stroke-width:8;stroke-linecap:round;stroke-linejoin:round;stroke-miterlimit:10;} .st13{fill-rule:evenodd;clip-rule:evenodd;fill:#0060A8;} .st14{fill-rule:evenodd;clip-rule:evenodd;fill:#FFFFFF;} .st15{fill-rule:evenodd;clip-rule:evenodd;fill:#164B78;} .st16{fill-rule:evenodd;clip-rule:evenodd;fill:#CCE9FF;} .st17{fill-rule:evenodd;clip-rule:evenodd;fill:#2E9FFF;} .st18{fill:#FFFFFF;} .st19{fill:#5D5D5D;} .st20{fill:#0060A8;} .st21{fill:#64BDFF;} .st22{fill:#9FD6FF;} .st23{fill:#85D1FF;} .st24{fill:#0E7DC1;} .st25{fill:#00ADEE;} .st26{fill:#404041;} .st27{opacity:0.26;} .st28{fill:#2F9AEA;} .st29{fill:#94D77F;stroke:#94D77F;stroke-width:2;stroke-miterlimit:10;} .st30{fill:none;stroke:#FFFFFF;stroke-width:2;stroke-miterlimit:10;} .st31{fill:none;stroke:#1795E2;stroke-width:5;stroke-linecap:round;stroke-linejoin:round;stroke-miterlimit:10;} .st32{fill:#1795E2;} .st33{fill:#39B4FF;} .st34{fill:#4BACFF;} .st35{fill:#231F20;} .st36{fill:none;stroke:#85D1FF;stroke-width:5;stroke-linecap:round;stroke-linejoin:round;stroke-miterlimit:10;} .st37{fill:none;stroke:#0060A8;stroke-width:5;stroke-linecap:round;stroke-linejoin:round;stroke-miterlimit:10;} .st38{fill:none;} .st39{fill:#208FFA;} .st40{fill:#EE4036;} .st41{fill:#FAAF40;} .st42{fill-rule:evenodd;clip-rule:evenodd;fill:#8DD1FF;} .st43{fill-rule:evenodd;clip-rule:evenodd;fill:#64BDFF;} .st44{fill:#8DD1FF;}</style><path class="st20" d="M64.7 56c-1.7-2.6-4-5.6-7.8-5.8-4.2-.2-9 3.4-15 11.3-6.7 8.9-9 14.9-7.4 19.1.5 1.2 1.2 2.1 2.3 2.9 1.4 1 3.3 1.8 5.7 2.2 1.1.2 2.1-.5 2.3-1.6.1-.8-.2-1.5-.8-1.9l17.8-23.6c.6.5 1.5.6 2.2.1 1-.6 1.3-1.8.7-2.7zM44.9 97.7s-14.6 22.7-30.6 15.6C6.8 111.1-2.5 131.8.6 134.2c4.6 3.5 11-.1 17.3-8.7 15.3 4.1 30.4.2 41.5-10.8 11.2-11-14.5-17-14.5-17zM86.6 134.4S75.7 151.3 63.7 146c-5.6-1.6-12.6 13.9-10.2 15.6 3.5 2.6 8.2-.1 13-6.5 11.4 3.1 22.7.1 31-8 8.3-8.2-10.9-12.7-10.9-12.7z"/><path class="st26" d="M124.3 115.8c-.9-.7-2.1-.9-2.1-.9-.1 0-.3-.1-.4-.1-.3-.1-7.1-2.9-12.6-7.1-1.3-1-2.2-.8-2.5-.7-1.8.4-3.3 2.8-3.6 3.5 0 .1-.1.2-.1.3-.1.1-5.7 8.1-9.4 13.2-1.3 1.7 1.5 4.2 3.4 5.6 2.9 2.2 6.3 3.8 7.9 4.3 5.9 1.9 7.9.6 8.1.4l11-14.6c1.9-2.8.9-3.5.3-3.9z"/><path class="st21" d="M180.8 40.6c-1.3-11.9-7.5-22.1-18.4-30.3-17.2-13-33.9-11.4-45-7.7-13.9 4.6-25 14.2-30.7 21.8L69.4 47.5v.1c0 .1-.1.3-.1.4-.7 4.4 2.9 10.5 10.7 18.3 4.1 4.1 9.3 8.5 15.1 12.8 6.9 5.2 14.5 10.3 22.1 14.6 8.9 5.2 25.2 13.6 34 12 .1 0 .3-.1.4-.1h.3l10.8-14c.5-.6 5.4-6.6 10.2-15.7 4.4-8.6 9.5-21.8 7.9-35.3z"/><circle class="st20" cx="125" cy="47.9" r="5.1"/><circle class="st20" cx="161.4" cy="69.1" r="5.1"/><path class="st13" d="M125.2 62.7c-.7 5.8 2.2 11.7 7.8 14.4 5.5 2.8 12 1.6 16.2-2.5.7-.7 0-1.9-1-1.9-3.3 0-7.2-1.4-11.3-3.4-4.3-2.2-7.9-4.6-9.9-7.4-.5-.7-1.7-.2-1.8.8z"/><path class="st20" d="M117.3 34.6c-.2-.2-.4-.4-.5-.6-.5-1-.2-2.2.8-2.7.4-.2 10.4-5.5 20.4-1.1 1 .4 1.4 1.6 1 2.6-.4 1-1.6 1.4-2.6 1-8.2-3.7-16.8.9-16.8.9-.9.4-1.7.3-2.3-.1zM180.1 70.1c-.4-.3-.7-.7-.7-1.2-.9-4.5-6.5-9.6-8.7-11.3l-.1-.1c-.9-.7-1-1.9-.4-2.8.7-.9 1.9-1.1 2.8-.4.3.2 8.9 6.7 10.3 13.8.2 1.1-.5 2.1-1.6 2.3-.7.2-1.2 0-1.6-.3z"/><path class="st27 st18" d="M116.7 16.9c-.2-.1-.3-.3-.5-.5-.6-.9-.3-2.1.6-2.7.5-.4 13.4-8.5 30.1-1.1 1 .4 1.4 1.6 1 2.6-.4 1-1.6 1.5-2.6 1-14.6-6.5-25.8.5-26.3.8-.7.4-1.6.4-2.3-.1zM157.7 23.9c-.1-.1-.3-.2-.4-.4-.6-.8-2.7-2.2-4-2.9-1-.5-1.3-1.7-.8-2.7.5-1 1.7-1.3 2.7-.8.6.4 3.8 2.2 5.2 4 .7.9.5 2.1-.4 2.8-.6.5-1.6.5-2.3 0z"/><path class="st28" d="M98.3 59.3l-12.8-9.7c-.6-.4-.9-1.1-.8-1.8l1.3-9.6c.2-1.1 1.1-1.8 2.2-1.7 1.1.1 1.8 1.1 1.7 2.2l-1.2 8.5 11.9 9c.9.7 1 1.9.4 2.8-.6.8-1.9.9-2.7.3z"/><path class="st28" d="M108.1 55.5c-3.1-2.3-7.5-1.7-9.8 1.4-2.3 3.1-1.7 7.5 1.4 9.8 3.1 2.3 7.5 1.7 9.8-1.4 2.3-3.1 1.7-7.5-1.4-9.8z"/><g><path class="st20" d="M135.3 148c-.1 0-.1-.1-.2-.1-16.3-13.2-13-40.8-12.8-42 .5-4.1 4.3-7 8.4-6.5 4.1.5 7 4.3 6.5 8.4-.7 5.7-.7 21.8 7.4 28.4 3.2 2.6 3.7 7.3 1.1 10.6-2.6 3.1-7.2 3.6-10.4 1.2z"/></g><g><path class="st44" d="M151.3 103.2l-.9-.3c-10.9-2.3-47-15.1-79.8-57.1l-.7.9-.7.8-28.4 37.8c-3.1 3.8-7.2 13.4-.6 22.4 2.9 4 10 9.7 15.5 13.9 15.2 11.5 38.2 26 48.3 29.3 11.1 3.7 22-11.5 22.8-12.6l25.2-32.7 1.7-2.2-2.4-.2z"/></g><g><path class="st20" d="M73.3 116.5c-.4-.3-.7-.6-1.1-1-14.7-16.5-8.4-37.9-8.1-38.8 1.2-4 5.4-6.2 9.4-5 4 1.2 6.2 5.4 5 9.3-.2.6-4 14.4 5 24.4 2.8 3.1 2.5 7.8-.6 10.6-2.7 2.5-6.8 2.6-9.6.5z"/></g><g><path class="st20" d="M94.5 132.6c-7-5.3-5.6-9.2-4.1-11.2 3.5-4.6 8.6-12 9.3-12.9.5-.9 2.6-4.7 6.2-5.5 1.4-.3 3.5-.3 5.8 1.4 4.7 3.5 10.5 6.1 11.5 6.5.6.1 2.2.6 3.6 1.6 2.9 2.2 3.1 5.7.3 9.4L116 136.6c-.5.6-3.3 3.8-12.4.9-2.3-.7-6-2.5-9.1-4.9z"/><ellipse transform="rotate(37.08 107.493 115.574)" class="st25" cx="107.5" cy="115.6" rx="3.6" ry="3.6"/><ellipse transform="rotate(37.08 115.654 120.784)" class="st24" cx="115.7" cy="120.8" rx="3.6" ry="3.6"/><path class="st25" d="M97.4 126.1c-1-.8-1.1-2.5-.1-3.8 1-1.3 2.7-1.8 3.7-1 0 0 5.1 3.8 10.6 5.2 1.3.3 1.9 1.8 1.2 3.3-.6 1.5-2.2 2.5-3.5 2.1-6.3-1.6-11.7-5.6-11.9-5.8z"/></g></svg>