<svg id="Layer_1" xmlns="http://www.w3.org/2000/svg" viewBox="0 0 143.2 203.2"><style>.st0{fill:#37A0FF;} .st1{fill:#494E58;} .st2{fill:#1684EF;} .st3{fill:#2595FE;} .st4{fill:#137ADE;} .st5{fill:#525B68;} .st6{fill:none;stroke:#404041;stroke-width:5;stroke-miterlimit:10;} .st7{fill:#3A3F47;} .st8{fill:#57606D;} .st9{fill:none;stroke:#FFFFFF;stroke-width:3;stroke-miterlimit:10;} .st10{fill:#546C89;} .st11{fill:#5E7A96;} .st12{fill-rule:evenodd;clip-rule:evenodd;fill:none;stroke:#0060A8;stroke-width:8;stroke-linecap:round;stroke-linejoin:round;stroke-miterlimit:10;} .st13{fill-rule:evenodd;clip-rule:evenodd;fill:#0060A8;} .st14{fill-rule:evenodd;clip-rule:evenodd;fill:#FFFFFF;} .st15{fill-rule:evenodd;clip-rule:evenodd;fill:#164B78;} .st16{fill-rule:evenodd;clip-rule:evenodd;fill:#CCE9FF;} .st17{fill-rule:evenodd;clip-rule:evenodd;fill:#2E9FFF;} .st18{fill:#FFFFFF;} .st19{fill:#5D5D5D;} .st20{fill:#0060A8;} .st21{fill:#64BDFF;} .st22{fill:#9FD6FF;} .st23{fill:#85D1FF;} .st24{fill:#0E7DC1;} .st25{fill:#00ADEE;} .st26{fill:#404041;} .st27{opacity:0.26;} .st28{fill:#2F9AEA;} .st29{fill:#94D77F;stroke:#94D77F;stroke-width:2;stroke-miterlimit:10;} .st30{fill:none;stroke:#FFFFFF;stroke-width:2;stroke-miterlimit:10;} .st31{fill:none;stroke:#1795E2;stroke-width:5;stroke-linecap:round;stroke-linejoin:round;stroke-miterlimit:10;} .st32{fill:#1795E2;} .st33{fill:#39B4FF;} .st34{fill:#4BACFF;} .st35{fill:#231F20;} .st36{fill:none;stroke:#85D1FF;stroke-width:5;stroke-linecap:round;stroke-linejoin:round;stroke-miterlimit:10;} .st37{fill:none;stroke:#0060A8;stroke-width:5;stroke-linecap:round;stroke-linejoin:round;stroke-miterlimit:10;} .st38{fill:none;} .st39{fill:#208FFA;} .st40{fill:#EE4036;} .st41{fill:#FAAF40;} .st42{fill-rule:evenodd;clip-rule:evenodd;fill:#8DD1FF;} .st43{fill-rule:evenodd;clip-rule:evenodd;fill:#64BDFF;} .st44{fill:#8DD1FF;}</style><path class="st20" d="M70.5 57.1S59.9 32.3 74.7 23c6-5-6-24.3-9.7-23-5.5 1.9-6 9.2-2.4 19.2-12 10.5-17.3 25.2-14.4 40.6 2.9 15.3 22.3-2.7 22.3-2.7zM92.6 69s18.2-19.9 7.2-33.5c-4-6.7 13.6-21 16.7-18.5 4.6 3.6 2.7 10.7-4 19 7.8 13.7 7.9 29.4.2 42.9C105 92.3 92.6 69 92.6 69z"/><path class="st44" d="M119.9 125.5l9.2-46.6c1.1-4.8.7-15.2-9.2-20.5-4.3-2.3-13.3-4.4-20-5.7C81.3 49 54.2 46 43.7 47.4c-11.6 1.5-14.8 19.9-15 21.3L20 110.2c9.4-1.9 19.4-2.9 29.8-2.9 27.6 0 52.4 7 70.1 18.2z"/><path class="st21" d="M13.9 147.6c-.3 9.8 1 23.8 8.2 35.3 6.4 10.1 16.4 16.6 29.7 19.3 21.1 4.2 35.5-4.6 43.9-12.7 10.5-10.2 16.3-23.7 18.1-33l6.1-31c-17.7-11.2-42.5-18.2-70-18.2-10.4 0-20.4 1-29.8 2.9l-4 18.8c-.1.7-2 8.3-2.2 18.6z"/><path class="st20" d="M.5 96.8c.2-.4.4-.9.7-1.3 12-18.6 34.3-18.1 35.2-18.1 4.1.1 7.4 3.6 7.3 7.7-.1 4.1-3.6 7.4-7.7 7.3-.7 0-14.9-.1-22.2 11.2-2.2 3.5-6.9 4.5-10.4 2.2-3-1.9-4.2-5.8-2.9-9zM119 94.4c.5.1.9.3 1.4.5 20 9.3 22.7 31.4 22.8 32.4.5 4.1-2.5 7.8-6.6 8.3-4.1.5-7.8-2.5-8.3-6.6-.1-.7-2-14.8-14.2-20.4-3.8-1.7-5.4-6.2-3.7-10 1.5-3.3 5.1-5 8.6-4.2z"/><circle class="st20" cx="94" cy="149" r="5.1"/><circle class="st20" cx="34.7" cy="139.9" r="5.1"/><path class="st13" d="M78.7 136.6c-1-5.8-5.5-10.5-11.6-11.6-6.1-1-11.9 2-14.8 7.1-.5.8.5 1.8 1.5 1.5 3.1-.9 7.3-.7 11.8 0 4.8.8 8.9 2.1 11.6 4.2.7.5 1.7-.3 1.5-1.2z"/><path class="st20" d="M117.1 158.8c.2.1.5.3.7.5.7.8.6 2.1-.2 2.8-.4.3-9 7.6-19.7 5.4-1.1-.2-1.8-1.3-1.5-2.3.2-1.1 1.3-1.8 2.3-1.5 8.8 1.9 16.2-4.4 16.3-4.5.6-.6 1.5-.7 2.1-.4zM9.7 140.7c-.3 0-.5.1-.8.3-.9.5-1.3 1.8-.7 2.7.2.4 6 10.2 16.8 11.5 1.1.1 2.1-.6 2.2-1.7.1-1.1-.6-2.1-1.7-2.2-8.9-1.1-13.8-9.5-13.9-9.6-.4-.7-1.1-1.1-1.9-1z"/><path class="st22" d="M90.1 176.3c.2 0 .4.1.6.2.9.6 1.2 1.8.7 2.7-.3.6-8.4 13.5-26.6 14.1-1.1 0-2-.8-2-1.9 0-1.1.8-2 1.9-2 16-.6 23-11.8 23.3-12.2.4-.8 1.3-1.1 2.1-.9zM50.1 187.8c.2 0 .4.1.5.2.9.5 3.4.8 4.8.9 1.1.1 1.9 1 1.9 2.1-.1 1.1-1 1.9-2.1 1.9-.7 0-4.4-.3-6.4-1.3-1-.5-1.4-1.7-.9-2.7.5-.8 1.4-1.2 2.2-1.1z"/><path class="st20" d="M87.7 95.9l-23-3.9c-2.7-.5-4.6-3.1-4.1-5.8l3.2-18.9c.5-2.7 3.1-4.6 5.8-4.1l23 3.9c2.7.5 4.6 3.1 4.1 5.8l-3.2 18.9c-.5 2.7-3.1 4.6-5.8 4.1z"/><circle class="st23" cx="70.8" cy="84.5" r="3.2"/><circle class="st24" cx="84.3" cy="86.8" r="3.2"/><path class="st25" d="M88 71.7L72.3 69c-1.1-.2-2.2.6-2.4 1.7-.2 1.1.6 2.2 1.7 2.4l15.7 2.6c1.1.2 2.2-.6 2.4-1.7.2-1-.6-2.1-1.7-2.3z"/></svg>